<mxfile host="65bd71144e">
    <diagram id="ONvBRbvwFQ4H_e61Y_6W" name="Page-1">
        <mxGraphModel dx="1207" dy="487" grid="1" gridSize="10" guides="1" tooltips="1" connect="1" arrows="1" fold="1" page="1" pageScale="1" pageWidth="827" pageHeight="1169" math="0" shadow="0">
            <root>
                <mxCell id="0"/>
                <mxCell id="1" parent="0"/>
                <mxCell id="2" style="edgeStyle=orthogonalEdgeStyle;rounded=0;orthogonalLoop=1;jettySize=auto;html=1;entryX=1;entryY=0.5;entryDx=0;entryDy=0;" edge="1" parent="1" source="6" target="14">
                    <mxGeometry relative="1" as="geometry">
                        <Array as="points">
                            <mxPoint x="590" y="587.07"/>
                            <mxPoint x="590" y="450.07"/>
                        </Array>
                    </mxGeometry>
                </mxCell>
                <mxCell id="3" style="edgeStyle=orthogonalEdgeStyle;rounded=0;orthogonalLoop=1;jettySize=auto;html=1;entryX=1;entryY=0.5;entryDx=0;entryDy=0;" edge="1" parent="1" source="6" target="12">
                    <mxGeometry relative="1" as="geometry"/>
                </mxCell>
                <mxCell id="4" style="edgeStyle=orthogonalEdgeStyle;rounded=0;orthogonalLoop=1;jettySize=auto;html=1;entryX=1;entryY=0.5;entryDx=0;entryDy=0;" edge="1" parent="1" source="6" target="13">
                    <mxGeometry relative="1" as="geometry">
                        <Array as="points">
                            <mxPoint x="590" y="587.07"/>
                            <mxPoint x="590" y="727.07"/>
                        </Array>
                    </mxGeometry>
                </mxCell>
                <mxCell id="5" value="Datasource&lt;div&gt;for Query&lt;/div&gt;" style="edgeLabel;html=1;align=center;verticalAlign=middle;resizable=0;points=[];" vertex="1" connectable="0" parent="4">
                    <mxGeometry x="-0.7136" y="-3" relative="1" as="geometry">
                        <mxPoint x="-9" as="offset"/>
                    </mxGeometry>
                </mxCell>
                <mxCell id="6" value="Grafana Dashboard" style="shape=image;verticalLabelPosition=bottom;labelBackgroundColor=default;verticalAlign=top;aspect=fixed;imageAspect=0;image=https://upload.wikimedia.org/wikipedia/commons/3/3b/Grafana_icon.svg;" vertex="1" parent="1">
                    <mxGeometry x="690" y="539.2" width="91.36" height="95" as="geometry"/>
                </mxCell>
                <mxCell id="7" style="edgeStyle=orthogonalEdgeStyle;rounded=0;orthogonalLoop=1;jettySize=auto;html=1;entryX=0;entryY=0.5;entryDx=0;entryDy=0;" edge="1" parent="1" source="11" target="14">
                    <mxGeometry relative="1" as="geometry">
                        <Array as="points">
                            <mxPoint x="400" y="587.07"/>
                            <mxPoint x="400" y="450.07"/>
                        </Array>
                    </mxGeometry>
                </mxCell>
                <mxCell id="8" style="edgeStyle=orthogonalEdgeStyle;rounded=0;orthogonalLoop=1;jettySize=auto;html=1;entryX=0;entryY=0.5;entryDx=0;entryDy=0;" edge="1" parent="1" source="11" target="12">
                    <mxGeometry relative="1" as="geometry"/>
                </mxCell>
                <mxCell id="9" style="edgeStyle=orthogonalEdgeStyle;rounded=0;orthogonalLoop=1;jettySize=auto;html=1;entryX=0;entryY=0.5;entryDx=0;entryDy=0;" edge="1" parent="1" source="11" target="13">
                    <mxGeometry relative="1" as="geometry">
                        <Array as="points">
                            <mxPoint x="400" y="587.07"/>
                            <mxPoint x="400" y="727.07"/>
                        </Array>
                    </mxGeometry>
                </mxCell>
                <mxCell id="10" value="Ingest" style="edgeLabel;html=1;align=center;verticalAlign=middle;resizable=0;points=[];" vertex="1" connectable="0" parent="9">
                    <mxGeometry x="-0.7413" y="1" relative="1" as="geometry">
                        <mxPoint x="-7" y="1" as="offset"/>
                    </mxGeometry>
                </mxCell>
                <mxCell id="11" value="OTEL Collector" style="shape=image;verticalLabelPosition=bottom;labelBackgroundColor=default;verticalAlign=top;aspect=fixed;imageAspect=0;image=https://seeklogo.com/images/O/opentelemetry-logo-2DC4F51D47-seeklogo.com.png;" vertex="1" parent="1">
                    <mxGeometry x="250" y="539.2" width="95" height="95" as="geometry"/>
                </mxCell>
                <mxCell id="12" value="Prometheus&#10;(Metrics)" style="shape=image;verticalLabelPosition=bottom;labelBackgroundColor=default;verticalAlign=top;aspect=fixed;imageAspect=0;image=https://upload.wikimedia.org/wikipedia/commons/thumb/3/38/Prometheus_software_logo.svg/2066px-Prometheus_software_logo.svg.png;" vertex="1" parent="1">
                    <mxGeometry x="452" y="542.07" width="90" height="89.25" as="geometry"/>
                </mxCell>
                <mxCell id="13" value="Grafana Loki&#10;(Logs)" style="shape=image;verticalLabelPosition=bottom;labelBackgroundColor=default;verticalAlign=top;aspect=fixed;imageAspect=0;image=https://grafana.com/media/docs/loki/logo-grafana-loki.png;" vertex="1" parent="1">
                    <mxGeometry x="452" y="682.07" width="90" height="90" as="geometry"/>
                </mxCell>
                <mxCell id="14" value="Grafana Tempo&#10;(Traces)" style="shape=image;verticalLabelPosition=bottom;labelBackgroundColor=default;verticalAlign=top;aspect=fixed;imageAspect=0;image=https://grafana.com/static/assets/img/logos/grafana-tempo.svg;" vertex="1" parent="1">
                    <mxGeometry x="450" y="412.07" width="94" height="76.63" as="geometry"/>
                </mxCell>
                <mxCell id="15" value="" style="shape=image;verticalLabelPosition=bottom;labelBackgroundColor=default;verticalAlign=top;aspect=fixed;imageAspect=0;image=https://www.svgrepo.com/show/303251/mysql-logo.svg;" vertex="1" parent="1">
                    <mxGeometry x="62" y="270" width="130" height="130" as="geometry"/>
                </mxCell>
                <mxCell id="16" value="" style="shape=image;verticalLabelPosition=bottom;labelBackgroundColor=default;verticalAlign=top;aspect=fixed;imageAspect=0;image=https://cdn4.iconfinder.com/data/icons/redis-2/1451/Untitled-2-512.png;" vertex="1" parent="1">
                    <mxGeometry x="100" y="670" width="112" height="112" as="geometry"/>
                </mxCell>
                <mxCell id="17" style="edgeStyle=orthogonalEdgeStyle;rounded=0;orthogonalLoop=1;jettySize=auto;html=1;entryX=0;entryY=0.5;entryDx=0;entryDy=0;" edge="1" parent="1" source="24" target="15">
                    <mxGeometry relative="1" as="geometry">
                        <Array as="points">
                            <mxPoint x="-108" y="335"/>
                        </Array>
                    </mxGeometry>
                </mxCell>
                <mxCell id="18" value="List All Product&lt;div&gt;Ids&lt;/div&gt;" style="edgeLabel;html=1;align=center;verticalAlign=middle;resizable=0;points=[];" vertex="1" connectable="0" parent="17">
                    <mxGeometry x="0.1897" relative="1" as="geometry">
                        <mxPoint x="28" as="offset"/>
                    </mxGeometry>
                </mxCell>
                <mxCell id="19" style="edgeStyle=orthogonalEdgeStyle;rounded=0;orthogonalLoop=1;jettySize=auto;html=1;entryX=0;entryY=0.5;entryDx=0;entryDy=0;" edge="1" parent="1" source="24" target="28">
                    <mxGeometry relative="1" as="geometry">
                        <Array as="points">
                            <mxPoint x="40" y="506"/>
                            <mxPoint x="40" y="414"/>
                        </Array>
                    </mxGeometry>
                </mxCell>
                <mxCell id="20" value="Get Product Prices" style="edgeLabel;html=1;align=center;verticalAlign=middle;resizable=0;points=[];" vertex="1" connectable="0" parent="19">
                    <mxGeometry x="-0.1656" relative="1" as="geometry">
                        <mxPoint x="100" y="-25" as="offset"/>
                    </mxGeometry>
                </mxCell>
                <mxCell id="21" style="edgeStyle=orthogonalEdgeStyle;rounded=0;orthogonalLoop=1;jettySize=auto;html=1;entryX=0;entryY=0.5;entryDx=0;entryDy=0;" edge="1" parent="1" source="24" target="33">
                    <mxGeometry relative="1" as="geometry"/>
                </mxCell>
                <mxCell id="22" value="Get Product Infos" style="edgeLabel;html=1;align=center;verticalAlign=middle;resizable=0;points=[];" vertex="1" connectable="0" parent="21">
                    <mxGeometry x="-0.2332" y="1" relative="1" as="geometry">
                        <mxPoint as="offset"/>
                    </mxGeometry>
                </mxCell>
                <mxCell id="23" style="edgeStyle=orthogonalEdgeStyle;rounded=0;orthogonalLoop=1;jettySize=auto;html=1;exitX=1;exitY=0.75;exitDx=0;exitDy=0;entryX=0;entryY=0.5;entryDx=0;entryDy=0;strokeColor=#FF6666;dashed=1;dashPattern=12 12;" edge="1" parent="1" source="24" target="11">
                    <mxGeometry relative="1" as="geometry">
                        <Array as="points">
                            <mxPoint y="529"/>
                            <mxPoint y="587"/>
                        </Array>
                    </mxGeometry>
                </mxCell>
                <mxCell id="24" value="API Gateway" style="shape=image;verticalLabelPosition=bottom;labelBackgroundColor=default;verticalAlign=top;aspect=fixed;imageAspect=0;image=https://upload.wikimedia.org/wikipedia/commons/thumb/c/c3/Python-logo-notext.svg/1869px-Python-logo-notext.svg.png;" vertex="1" parent="1">
                    <mxGeometry x="-150" y="460" width="84" height="92.14" as="geometry"/>
                </mxCell>
                <mxCell id="25" style="edgeStyle=orthogonalEdgeStyle;rounded=0;orthogonalLoop=1;jettySize=auto;html=1;entryX=1;entryY=0.5;entryDx=0;entryDy=0;exitX=0.5;exitY=0;exitDx=0;exitDy=0;" edge="1" parent="1" source="28" target="15">
                    <mxGeometry relative="1" as="geometry"/>
                </mxCell>
                <mxCell id="26" value="Query Product Price" style="edgeLabel;html=1;align=center;verticalAlign=middle;resizable=0;points=[];" vertex="1" connectable="0" parent="25">
                    <mxGeometry x="0.1333" y="4" relative="1" as="geometry">
                        <mxPoint x="8" y="-19" as="offset"/>
                    </mxGeometry>
                </mxCell>
                <mxCell id="27" style="edgeStyle=orthogonalEdgeStyle;rounded=0;orthogonalLoop=1;jettySize=auto;html=1;entryX=0.5;entryY=0;entryDx=0;entryDy=0;strokeColor=#FF6666;dashed=1;dashPattern=12 12;" edge="1" parent="1" source="28" target="11">
                    <mxGeometry relative="1" as="geometry"/>
                </mxCell>
                <mxCell id="28" value="Product Price Service" style="shape=image;verticalLabelPosition=bottom;labelBackgroundColor=default;verticalAlign=top;aspect=fixed;imageAspect=0;image=https://upload.wikimedia.org/wikipedia/commons/thumb/c/c3/Python-logo-notext.svg/1869px-Python-logo-notext.svg.png;" vertex="1" parent="1">
                    <mxGeometry x="255.5" y="367.86" width="84" height="92.14" as="geometry"/>
                </mxCell>
                <mxCell id="29" style="edgeStyle=orthogonalEdgeStyle;rounded=0;orthogonalLoop=1;jettySize=auto;html=1;entryX=0;entryY=0.5;entryDx=0;entryDy=0;" edge="1" parent="1" source="33" target="16">
                    <mxGeometry relative="1" as="geometry"/>
                </mxCell>
                <mxCell id="30" value="Query&lt;div&gt;Product Info&lt;/div&gt;" style="edgeLabel;html=1;align=center;verticalAlign=middle;resizable=0;points=[];" vertex="1" connectable="0" parent="29">
                    <mxGeometry x="-0.075" y="-1" relative="1" as="geometry">
                        <mxPoint as="offset"/>
                    </mxGeometry>
                </mxCell>
                <mxCell id="31" style="edgeStyle=orthogonalEdgeStyle;rounded=0;orthogonalLoop=1;jettySize=auto;html=1;entryX=0;entryY=0.5;entryDx=0;entryDy=0;strokeColor=#FF6666;dashed=1;dashPattern=12 12;exitX=0.5;exitY=0;exitDx=0;exitDy=0;" edge="1" parent="1" source="33" target="11">
                    <mxGeometry relative="1" as="geometry">
                        <Array as="points">
                            <mxPoint x="-42" y="587"/>
                        </Array>
                    </mxGeometry>
                </mxCell>
                <mxCell id="32" value="Send Observability Metrics" style="edgeLabel;html=1;align=center;verticalAlign=middle;resizable=0;points=[];" vertex="1" connectable="0" parent="31">
                    <mxGeometry x="0.1048" y="2" relative="1" as="geometry">
                        <mxPoint x="46" y="2" as="offset"/>
                    </mxGeometry>
                </mxCell>
                <mxCell id="33" value="Product Info Service" style="shape=image;verticalLabelPosition=bottom;labelBackgroundColor=default;verticalAlign=top;aspect=fixed;imageAspect=0;image=https://upload.wikimedia.org/wikipedia/commons/thumb/c/c3/Python-logo-notext.svg/1869px-Python-logo-notext.svg.png;" vertex="1" parent="1">
                    <mxGeometry x="-84" y="679.9300000000001" width="84" height="92.14" as="geometry"/>
                </mxCell>
                <mxCell id="34" value="Send Observability Metrics" style="edgeLabel;html=1;align=center;verticalAlign=middle;resizable=0;points=[];" vertex="1" connectable="0" parent="1">
                    <mxGeometry x="297.5" y="506.07000000000005" as="geometry"/>
                </mxCell>
            </root>
        </mxGraphModel>
    </diagram>
</mxfile>